<?xml version="1.0" ?><svg id="Icons" style="enable-background:new 0 0 32 32;" version="1.1" viewBox="0 0 32 32" xml:space="preserve" xmlns="http://www.w3.org/2000/svg" xmlns:xlink="http://www.w3.org/1999/xlink"><g><path d="M16.3,15.7c0.2,0.2,0.5,0.3,0.7,0.3s0.5-0.1,0.7-0.3l11-11c0.4-0.4,0.4-1,0-1.4s-1-0.4-1.4,0l-11,11   C15.9,14.7,15.9,15.3,16.3,15.7z"/><path d="M6,21c0,2.8,2.2,5,5,5s5-2.2,5-5s-2.2-5-5-5S6,18.2,6,21z"/><path d="M29.7,14.3c-0.4-0.4-1-0.4-1.4,0L16,25.9c-2.7,2.7-7.2,2.7-9.9,0c-2.7-2.7-2.7-7.2,0-9.9L18.7,4.7c0.4-0.4,0.4-1,0.1-1.4   c-0.4-0.4-1-0.4-1.4-0.1L4.6,14.6c-3.5,3.5-3.5,9.2,0,12.7C6.4,29.1,8.7,30,11,30c2.3,0,4.6-0.9,6.3-2.6l12.3-11.7   C30.1,15.3,30.1,14.7,29.7,14.3z"/></g></svg>